<svg xmlns="http://www.w3.org/2000/svg" width="1500" height="1200" viewBox="0 0 1500 1200"><rect width="1500" height="1200" fill="#f5f7fb"/><g font-family="Microsoft YaHei, sans-serif" fill="#17233d"><text x="40" y="60" font-size="32">H1 候选共同申请网络</text><text x="40" y="110" font-size="22">16节点 · 5无向边 · 14同族目的性样本 · 每条边权重1</text><line x1="850" y1="310" x2="1110" y2="460" stroke="#365b91" stroke-width="4"/><line x1="330" y1="270" x2="510" y2="410" stroke="#365b91" stroke-width="4"/><line x1="330" y1="270" x2="330" y2="580" stroke="#365b91" stroke-width="4"/><line x1="330" y1="270" x2="140" y2="410" stroke="#365b91" stroke-width="4"/><line x1="510" y1="410" x2="140" y2="410" stroke="#365b91" stroke-width="4"/><g><title>Baleena Co; FamilyCount=1</title><circle cx="140" cy="780" r="23.0" fill="#67788c"/><text x="140" y="835.0" text-anchor="middle" font-size="22">Baleena</text><text x="140" y="863.0" text-anchor="middle" font-size="18">同族 1</text></g><g><title>EGO Elektro Geratebau GmbH; FamilyCount=1</title><circle cx="415" cy="780" r="23.0" fill="#67788c"/><text x="415" y="835.0" text-anchor="middle" font-size="22">EGO</text><text x="415" y="863.0" text-anchor="middle" font-size="18">同族 1</text></g><g><title>Fraunhofer Gesellschaft zur Foerderung der Angewandten Forschung eV; FamilyCount=1</title><circle cx="850" cy="310" r="23.0" fill="#215b98"/><text x="850" y="365.0" text-anchor="middle" font-size="22">弗劳恩霍夫协会</text><text x="850" y="393.0" text-anchor="middle" font-size="18">同族 1</text></g><g><title>Haier Smart Home Co Ltd; FamilyCount=2</title><circle cx="330" cy="270" r="32.526911934581186" fill="#215b98"/><text x="330" y="334.52691193458116" text-anchor="middle" font-size="22">海尔智家</text><text x="330" y="362.52691193458116" text-anchor="middle" font-size="18">同族 2</text></g><g><title>Heritage Earth Ltd; FamilyCount=1</title><circle cx="690" cy="780" r="23.0" fill="#67788c"/><text x="690" y="835.0" text-anchor="middle" font-size="22">Heritage Earth</text><text x="690" y="863.0" text-anchor="middle" font-size="18">同族 1</text></g><g><title>IFP Energies Nouvelles IFPEN; FamilyCount=1</title><circle cx="965" cy="780" r="23.0" fill="#67788c"/><text x="965" y="835.0" text-anchor="middle" font-size="22">IFPEN</text><text x="965" y="863.0" text-anchor="middle" font-size="18">同族 1</text></g><g><title>LG Electronics Inc; FamilyCount=1</title><circle cx="1240" cy="780" r="23.0" fill="#67788c"/><text x="1240" y="835.0" text-anchor="middle" font-size="22">LG 电子</text><text x="1240" y="863.0" text-anchor="middle" font-size="18">同族 1</text></g><g><title>Northeast Petroleum University; FamilyCount=1</title><circle cx="140" cy="940" r="23.0" fill="#67788c"/><text x="140" y="995.0" text-anchor="middle" font-size="22">东北石油大学</text><text x="140" y="1023.0" text-anchor="middle" font-size="18">同族 1</text></g><g><title>Qingdao Haier Smart Technology R&amp;D Co Ltd; FamilyCount=1</title><circle cx="510" cy="410" r="23.0" fill="#215b98"/><text x="510" y="465.0" text-anchor="middle" font-size="22">海尔智慧技术研发</text><text x="510" y="493.0" text-anchor="middle" font-size="18">同族 1</text></g><g><title>Qingdao Haier Washing Electric Appliance Co Ltd; FamilyCount=1</title><circle cx="330" cy="580" r="23.0" fill="#215b98"/><text x="330" y="635.0" text-anchor="middle" font-size="22">海尔洗涤电器</text><text x="330" y="663.0" text-anchor="middle" font-size="18">同族 1</text></g><g><title>Qingdao Haier Washing Machine Co Ltd; FamilyCount=1</title><circle cx="140" cy="410" r="23.0" fill="#215b98"/><text x="140" y="465.0" text-anchor="middle" font-size="22">青岛海尔洗衣机</text><text x="140" y="493.0" text-anchor="middle" font-size="18">同族 1</text></g><g><title>Rheinische Friedrich Wilhelms Universitaet Bonn; FamilyCount=1</title><circle cx="1110" cy="460" r="23.0" fill="#215b98"/><text x="1110" y="515.0" text-anchor="middle" font-size="22">波恩大学</text><text x="1110" y="543.0" text-anchor="middle" font-size="18">同族 1</text></g><g><title>TCL Home Appliances Hefei Co Ltd; FamilyCount=2</title><circle cx="415" cy="940" r="32.526911934581186" fill="#67788c"/><text x="415" y="1004.5269119345812" text-anchor="middle" font-size="22">TCL 合肥家电</text><text x="415" y="1032.5269119345812" text-anchor="middle" font-size="18">同族 2</text></g><g><title>UFI Filters SpA; FamilyCount=1</title><circle cx="690" cy="940" r="23.0" fill="#67788c"/><text x="690" y="995.0" text-anchor="middle" font-size="22">UFI</text><text x="690" y="1023.0" text-anchor="middle" font-size="18">同族 1</text></g><g><title>Whirlpool Corp; FamilyCount=1</title><circle cx="965" cy="940" r="23.0" fill="#67788c"/><text x="965" y="995.0" text-anchor="middle" font-size="22">惠而浦</text><text x="965" y="1023.0" text-anchor="middle" font-size="18">同族 1</text></g><g><title>Xeros Ltd; FamilyCount=1</title><circle cx="1240" cy="940" r="23.0" fill="#67788c"/><text x="1240" y="995.0" text-anchor="middle" font-size="22">Xeros</text><text x="1240" y="1023.0" text-anchor="middle" font-size="18">同族 1</text></g><text x="40" y="1150" font-size="22">布局仅为排版；孤立点不等于机构从不合作。样本不能推断行业密度。</text></g></svg>